inDegrees=no
num_controls=7
num_derivatives=13
num_iterations=124
num_multipliers=7
num_parameters=0
num_slacks=7
num_states=26
objective=0.446237
objective_accelerations=0.056729
objective_balance=0.003467
objective_effort=0.022478
objective_height=0.358017
objective_ligament=0.005547
solver_duration=1916.323247
status=Solve_Succeeded
success=true
DataType=double
version=3
OpenSimVersion=4.5
endheader
time	/jointset/ground_pelvis/pelvis_tilt/value	/jointset/ground_pelvis/pelvis_tx/value	/jointset/ground_pelvis/pelvis_ty/value	/jointset/hip_l/hip_flexion_l/value	/jointset/hip_l/hip_adduction_l/value	/jointset/hip_l/hip_rotation_l/value	/jointset/back/lumbar_extension/value	/jointset/patellofemoral_l/patellar_flexion_l/value	/jointset/knee_l/knee_flexion_l/value	/jointset/knee_l/knee_adduction_l/value	/jointset/knee_l/knee_rotation_l/value	/jointset/ankle_l/ankle_angle_l/value	/jointset/subtalar_l/subtalar_angle_l/value	/jointset/ground_pelvis/pelvis_tilt/speed	/jointset/ground_pelvis/pelvis_tx/speed	/jointset/ground_pelvis/pelvis_ty/speed	/jointset/hip_l/hip_flexion_l/speed	/jointset/hip_l/hip_adduction_l/speed	/jointset/hip_l/hip_rotation_l/speed	/jointset/back/lumbar_extension/speed	/jointset/patellofemoral_l/patellar_flexion_l/speed	/jointset/knee_l/knee_flexion_l/speed	/jointset/knee_l/knee_adduction_l/speed	/jointset/knee_l/knee_rotation_l/speed	/jointset/ankle_l/ankle_angle_l/speed	/jointset/subtalar_l/subtalar_angle_l/speed	/forceset/tau_hip_flexion_l	/forceset/tau_hip_adduction_l	/forceset/tau_hip_rotation_l	/forceset/tau_knee_flexion_l	/forceset/tau_ankle_angle_l	/forceset/tau_subtalar_angle_l	/forceset/tau_lumbar_extension	lambda_cid13_p0	lambda_cid13_p1	lambda_cid13_p2	lambda_cid13_p3	lambda_cid13_p4	lambda_cid13_p5	lambda_cid14_p0	/jointset/ground_pelvis/pelvis_tilt/accel	/jointset/ground_pelvis/pelvis_tx/accel	/jointset/ground_pelvis/pelvis_ty/accel	/jointset/hip_l/hip_flexion_l/accel	/jointset/hip_l/hip_adduction_l/accel	/jointset/hip_l/hip_rotation_l/accel	/jointset/back/lumbar_extension/accel	/jointset/patellofemoral_l/patellar_flexion_l/accel	/jointset/knee_l/knee_flexion_l/accel	/jointset/knee_l/knee_adduction_l/accel	/jointset/knee_l/knee_rotation_l/accel	/jointset/ankle_l/ankle_angle_l/accel	/jointset/subtalar_l/subtalar_angle_l/accel	gamma_cid13_p0	gamma_cid13_p1	gamma_cid13_p2	gamma_cid13_p3	gamma_cid13_p4	gamma_cid13_p5	gamma_cid14_p0
1	-0.5352866081400627	-0.07543488865170322	0.5801510981415157	1.80371988352158	-0.4688033590875412	0.009054476818300541	-0.261791570654003	1.378575372145782	1.378575372145834	-0.08419815311855486	-0.1745279006952759	0.230990266598906	-0.005384540998340704	-0.01717719983174593	0.01091649682234634	0.005863715437186307	-0.01147570880672051	-0.003072815601875918	0.00136190529811673	1.308476588991534e-05	-0.008929884877275925	-0.00892988487727586	-0.009762346285386261	-0.0001462017468809556	0.01800550402358563	0.006694663947866638	-0.3263977032269215	0.01742896887302571	-0.0001178597750562187	-0.3056359902869911	0.03042753599166547	0.03059204033486809	0.2801901125977866	-30.0033136990715	-8.781760576234829	1.919674036331026	8.272807016918753	-641.159436737731	-48.79696254594329	-1.53361496932514	1.51622504789692	0.2291321747695805	1.938706548854584	-6.72187686643234	-0.05553330870755648	-2.324526793507359	-0.01921583032009573	-5.295749497772658	-5.295749497772593	-0.5995780102555068	-0.02438942763134689	-0.7676007752405378	-0.491616731820364	3.052126202311778e-09	1.583231266972606e-08	-4.298026823018132e-09	3.256638125937143e-09	-3.657172537522682e-09	3.074670665556429e-08	3.199605577939013e-10
1.01	-0.535383502516579	-0.07531430905863518	0.5803065016634342	1.803270386796646	-0.4688358758845317	0.008950630147246249	-0.2617914171477593	1.378221479475059	1.378221479475146	-0.08432292379750971	-0.1745293659487443	0.2311321217762821	-0.005340768691847588	-0.002202752248486273	0.01320268973525005	0.02521102563147291	-0.07840955059784252	-0.003428132998855037	-0.02212903974920476	1.662885613226884e-05	-0.06184158231600924	-0.06184158231600975	-0.01518948833907465	-0.0001482140402875944	0.01036035498599118	0.002059638337907222	-0.3262056900555212	0.01749653973313458	-0.0001378748410445805	-0.3054975291212875	0.03039348752512966	0.03061232828833002	0.2800457514445009	-29.99692495604752	-8.797776567983584	1.92917945496804	8.16454754968232	-640.9481396693939	-48.80900940473899	-1.541401152370927	1.487891693647128	0.2288537750313505	1.931845889602041	-6.677026685270915	-0.02517150416647587	-2.36105605802828	0.00999138465071975	-5.287817317887824	-5.287817317887905	-0.5139416923099853	0.01169840339121438	-0.7637481286226377	-0.4494745224664358	-6.157059353225647e-09	4.519743948424463e-09	3.804100878450125e-08	3.665496899035211e-09	-1.423249190913172e-08	7.908860833810205e-08	-1.240342395890661e-08
1.02	-0.5353306850012419	-0.07517076935134197	0.580655198814273	1.802151973883836	-0.468871873965287	0.008611938486185024	-0.2617912578294224	1.377338682339756	1.377338682339878	-0.08450189777487589	-0.1745308902184005	0.2311973702311616	-0.005343352450830697	0.0127651785390389	0.01550851966737971	0.04452244122121116	-0.1452589463817161	-0.003769072354770037	-0.04560709270387571	1.424718454668999e-05	-0.1147107777933089	-0.1147107777933087	-0.02060300596814228	-0.0001580049902320068	0.002684159524247131	-0.002576549147360002	-0.3260136768841165	0.01756411059324857	-0.00015788990702636	-0.3053590679555841	0.0303594390585945	0.03063261624179894	0.2799013902912191	-29.99681232954266	-8.812640767318573	1.938440832383257	8.08137943433524	-640.824062828571	-48.79983947248422	-1.560217342160935	1.514921688750029	0.2330595786147558	1.931527627944915	-6.704987664982646	-0.0526577004946692	-2.321948374977189	-0.02040098268569628	-5.287249105485958	-5.287249105485618	-0.5968531253313305	-0.02594515893877899	-0.7738100600704718	-0.491849106881854	-1.344785759388535e-08	-1.623356477800296e-09	8.189143243875701e-08	5.604512940610593e-09	-2.386579413564594e-08	1.248060057901961e-07	-2.344079375771451e-08
1.03	-0.5351281707657569	-0.07500404862540989	0.5811967585811203	1.800365632556395	-0.468911026161361	0.008038759931616672	-0.2617911145786832	1.375927488000408	1.375927488000421	-0.08473487192808622	-0.174532292068499	0.2311856550528736	-0.005392091135204773	0.02774092846575379	0.01784126321322517	0.06377635421655094	-0.211980289248187	-0.004039629521973504	-0.06900313653921045	1.783511771065691e-05	-0.1675130016408426	-0.1675130016408442	-0.02598160645615083	-9.592077016045209e-05	-0.005036738191623873	-0.007148686439309054	-0.325626257878474	0.01773096938962216	-0.0002103068805518857	-0.3049849014546603	0.03026024422311767	0.03073100491254519	0.2796310389031514	-29.99843464907733	-8.869094731836828	1.96344143393434	7.96454952438869	-640.4263223126582	-48.8523987695237	-1.590294165042812	1.489387158866959	0.2342289203631922	1.920342689351	-6.651357253890916	-0.0110062911618251	-2.344631811600061	0.01125350444204701	-5.274438800103367	-5.274438800103876	-0.5068429976317292	0.02628306465130101	-0.7726606238104542	-0.43653446815181	-2.071908045378098e-08	-7.713707227544646e-09	1.257572784200203e-07	7.559142831864325e-09	-3.348948394231224e-08	1.704966225868774e-07	-3.446095932470717e-08
